# xmcd CD database file
# Copyright (C) 1993-1998 Ti Kan
#
# Track frame offsets:
#  187
#  23515
#  42215
#  61757
#  80162
#  104437
#  125450
#  146890
#  164815
#  184110
#  203795
#  224420
#  245592
#  270705
#  291322
#  309265
#
# Disc length: 4431 seconds
#
# Revision: 1
# Processed by: cddbd v1.4b41PL1 Copyright (c) Steve Scherf et al.
# Submitted via: CDWizzard Release:4.35
#
DISCID=f4114d10
DTITLE=The Winans - Tomorrow
DYEAR=1900
DGENRE=
TTITLE0=Secret Place
TTITLE1=Tomorrow
TTITLE2=You Just Don't Wanna Be Loved
TTITLE3=Uphold Me
TTITLE4=Everything You Touch Is A Song
TTITLE5=Love Is A Spirit
TTITLE6=Bring Back The Days Of Yea and Nay
TTITLE7=Lord I Believe
TTITLE8=Trust In God
TTITLE9=Golden Opportunity
TTITLE10=Fallow Ground
TTITLE11=Restoration
TTITLE12=Long Time Comin' (Holdin' On)
TTITLE13=A Gift Without A Giver
TTITLE14=Your Are Everything To Me
TTITLE15=Finders Keepers
EXTD=
EXTT0=
EXTT1=
EXTT2=
EXTT3=
EXTT4=
EXTT5=
EXTT6=
EXTT7=
EXTT8=
EXTT9=
EXTT10=
EXTT11=
EXTT12=
EXTT13=
EXTT14=
EXTT15=
PLAYORDER=
